# File created by Blade
# Date/Time:  Wed Jan 21 16:14:13 2015
# Frame Rate: 120.000 fps
#------------------------------------------------------
:FULLY-SPECIFIED
:DEGREES
179
root 18.503460 35.704498 -19.720732 -172.396619 -2.471463 -179.056815
Spine -19.618118 0.665532 1.247233
Head 14.854057 -0.017536 1.774101
LeftShoulder -5.871953 -45.255816 25.108904
LeftArm 14.813868 9.380594 -1.678137
LeftForeArm 9.513545 -0.000000 1.207232
LeftHand 3.123499 -0.000000 3.856177
LeftHandThumb1 -26.253704 0.000000 33.147579
RightShoulder -6.349031 10.561613 -24.689571
RightArm 10.492830 40.714429 -1.947959
RightForeArm -33.377177 -0.000000 5.433751
RightHand -2.868634 -0.000000 -7.817034
RightHandThumb1 -24.326973 -0.000000 -32.862282
LeftUpLeg -0.858438 7.917348 -0.094005
LeftLeg -4.943514 -0.000000 0.000000
LeftFoot -19.278400 25.733189 -12.013312
LeftToeBase 25.540328 -0.000000 -0.000000
RightUpLeg -2.150982 -6.208558 1.645860
RightLeg -1.634589 -0.000000 0.000000
RightFoot -21.433639 -27.931274 15.935170
RightToeBase 23.023551 -0.000000 -0.000000
180
root 18.506543 35.704915 -19.717723 -172.505108 -2.435900 -179.040194
Spine -19.406801 0.691550 1.190324
Head 14.847586 -0.159817 1.942728
LeftShoulder -5.882667 -44.703644 24.568638
LeftArm 13.657196 9.665967 -2.387098
LeftForeArm 9.768721 -0.000000 0.863262
LeftHand 3.634089 -0.000000 1.905715
LeftHandThumb1 -26.253704 0.000000 33.147579
RightShoulder -6.350353 10.159502 -24.128916
RightArm 9.524062 40.775940 -1.370343
RightForeArm -33.212932 0.000000 5.250740
RightHand -2.835100 -0.000000 -7.271763
RightHandThumb1 -24.326973 -0.000000 -32.862282
LeftUpLeg -0.736911 7.910593 -0.062665
LeftLeg -4.971049 -0.000000 0.000000
LeftFoot -19.284767 25.788861 -12.026538
LeftToeBase 25.531517 -0.000000 -0.000000
RightUpLeg -2.040360 -6.217093 1.651932
RightLeg -1.656811 -0.000000 0.000000
RightFoot -21.416659 -27.884566 15.949761
RightToeBase 23.083757 -0.000000 -0.000000
181
root 18.509630 35.705340 -19.714138 -172.617879 -2.389609 -179.017951
Spine -19.179563 0.729542 1.158869
Head 14.811230 -0.290150 2.067876
LeftShoulder -5.844497 -44.173504 23.942578
LeftArm 12.521958 10.011951 -3.025999
LeftForeArm 10.000231 -0.000000 0.390436
LeftHand 3.470654 -0.000000 1.728506
LeftHandThumb1 -26.253704 0.000000 33.147579
RightShoulder -6.394259 9.719102 -23.547665
RightArm 8.740304 40.884523 -0.747821
RightForeArm -32.903159 0.000000 4.836960
RightHand -2.836221 -0.000000 -6.857656
RightHandThumb1 -24.326973 -0.000000 -32.862282
LeftUpLeg -0.598272 7.858156 -0.016508
LeftLeg -5.011544 -0.000000 0.000000
LeftFoot -19.278346 25.857107 -12.021622
LeftToeBase 25.568044 -0.000000 -0.000000
RightUpLeg -1.937902 -6.233383 1.661686
RightLeg -1.662092 -0.000000 0.000000
RightFoot -21.418715 -27.854529 15.998839
RightToeBase 23.118774 -0.000000 -0.000000
182
root 18.511320 35.705678 -19.710008 -172.705377 -2.303066 -178.991431
Spine -18.996506 0.800561 1.131603
Head 14.778632 -0.454230 2.178641
LeftShoulder -5.812910 -43.629160 23.357874
LeftArm 11.285764 10.213404 -3.785268
LeftForeArm 10.176202 0.000000 0.070001
LeftHand 3.221691 0.000000 1.093487
LeftHandThumb1 -26.253704 0.000000 33.147579
RightShoulder -6.445638 9.281745 -22.933376
RightArm 8.103732 41.238892 -0.077526
RightForeArm -32.784601 -0.000000 4.309950
RightHand -2.752595 -0.000000 -6.389878
RightHandThumb1 -24.326973 -0.000000 -32.862282
LeftUpLeg -0.495743 7.917605 0.014270
LeftLeg -5.033560 -0.000000 0.000000
LeftFoot -19.292971 25.885302 -12.041364
LeftToeBase 25.538867 -0.000000 -0.000000
RightUpLeg -1.872169 -6.168836 1.674058
RightLeg -1.648270 -0.000000 0.000000
RightFoot -21.390096 -27.790044 16.010092
RightToeBase 23.041626 -0.000000 -0.000000
